grf
version=1
nRows=19
nColumns=28
inDegrees=yes
endheader
time	ground_force_1_vx	ground_force_1_vy	ground_force_1_vz	ground_force_1_px	ground_force_1_py	ground_force_1_pz	ground_moment_1_mx	ground_moment_1_my	ground_moment_1_mz	ground_force_2_vx	ground_force_2_vy	ground_force_2_vz	ground_force_2_px	ground_force_2_py	ground_force_2_pz	ground_moment_2_mx	ground_moment_2_my	ground_moment_2_mz	ground_force_3_vx	ground_force_3_vy	ground_force_3_vz	ground_force_3_px	ground_force_3_py	ground_force_3_pz	ground_moment_3_mx	ground_moment_3_my	ground_moment_3_mz
3.630000	-97.020281	626.245648	50.007762	-0.222141	0.000564	-0.455191	-0.006205	1.577836	0.005271	0.000000	0.000000	0.000000	0.000000	0.000000	0.000000	0.000000	0.000000	0.000000	0.000000	0.000000	0.000000	0.000000	0.000000	0.000000	0.000000	0.000000	0.000000
3.630667	-96.919504	627.461102	50.041356	-0.221973	0.000565	-0.455280	-0.006238	1.586215	0.005299	0.000000	0.000000	0.000000	0.000000	0.000000	0.000000	0.000000	0.000000	0.000000	0.000000	0.000000	0.000000	0.000000	0.000000	0.000000	0.000000	0.000000	0.000000
3.631333	-96.811076	628.662168	50.061643	-0.221806	0.000566	-0.455369	-0.006270	1.594205	0.005326	0.000000	0.000000	0.000000	0.000000	0.000000	0.000000	0.000000	0.000000	0.000000	0.000000	0.000000	0.000000	0.000000	0.000000	0.000000	0.000000	0.000000	0.000000
3.632000	-96.695145	629.849185	50.068825	-0.221639	0.000567	-0.455459	-0.006300	1.601805	0.005351	0.000000	0.000000	0.000000	0.000000	0.000000	0.000000	0.000000	0.000000	0.000000	0.000000	0.000000	0.000000	0.000000	0.000000	0.000000	0.000000	0.000000	0.000000
3.632667	-96.571876	631.022431	50.063185	-0.221472	0.000568	-0.455549	-0.006328	1.609010	0.005375	0.000000	0.000000	0.000000	0.000000	0.000000	0.000000	0.000000	0.000000	0.000000	0.000000	0.000000	0.000000	0.000000	0.000000	0.000000	0.000000	0.000000	0.000000
3.633333	-96.441463	632.182055	50.045081	-0.221306	0.000569	-0.455640	-0.006355	1.615807	0.005398	0.000000	0.000000	0.000000	0.000000	0.000000	0.000000	0.000000	0.000000	0.000000	0.000000	0.000000	0.000000	0.000000	0.000000	0.000000	0.000000	0.000000	0.000000
3.634000	-96.304101	633.328008	50.014947	-0.221139	0.000570	-0.455731	-0.006380	1.622181	0.005419	0.000000	0.000000	0.000000	0.000000	0.000000	0.000000	0.000000	0.000000	0.000000	0.000000	0.000000	0.000000	0.000000	0.000000	0.000000	0.000000	0.000000	0.000000
3.634667	-96.159974	634.460090	49.973284	-0.220973	0.000570	-0.455824	-0.006403	1.628114	0.005439	0.000000	0.000000	0.000000	0.000000	0.000000	0.000000	0.000000	0.000000	0.000000	0.000000	0.000000	0.000000	0.000000	0.000000	0.000000	0.000000	0.000000	0.000000
3.635333	-96.009237	635.578059	49.920641	-0.220806	0.000571	-0.455916	-0.006425	1.633593	0.005458	0.000000	0.000000	0.000000	0.000000	0.000000	0.000000	0.000000	0.000000	0.000000	0.000000	0.000000	0.000000	0.000000	0.000000	0.000000	0.000000	0.000000	0.000000
3.636000	-95.852030	636.681682	49.857606	-0.220640	0.000572	-0.456009	-0.006444	1.638603	0.005474	0.000000	0.000000	0.000000	0.000000	0.000000	0.000000	0.000000	0.000000	0.000000	0.000000	0.000000	0.000000	0.000000	0.000000	0.000000	0.000000	0.000000	0.000000
3.636667	-95.688485	637.770733	49.784815	-0.220474	0.000573	-0.456102	-0.006462	1.643134	0.005489	0.000000	0.000000	0.000000	0.000000	0.000000	0.000000	0.000000	0.000000	0.000000	0.000000	0.000000	0.000000	0.000000	0.000000	0.000000	0.000000	0.000000	0.000000
3.637333	-95.518726	638.845050	49.702952	-0.220308	0.000574	-0.456196	-0.006478	1.647175	0.005503	0.000000	0.000000	0.000000	0.000000	0.000000	0.000000	0.000000	0.000000	0.000000	0.000000	0.000000	0.000000	0.000000	0.000000	0.000000	0.000000	0.000000	0.000000
3.638000	-95.342867	639.904537	49.612736	-0.220142	0.000575	-0.456290	-0.006492	1.650714	0.005515	0.000000	0.000000	0.000000	0.000000	0.000000	0.000000	0.000000	0.000000	0.000000	0.000000	0.000000	0.000000	0.000000	0.000000	0.000000	0.000000	0.000000	0.000000
3.638667	-95.161014	640.949061	49.514896	-0.219976	0.000576	-0.456384	-0.006504	1.653738	0.005525	0.000000	0.000000	0.000000	0.000000	0.000000	0.000000	0.000000	0.000000	0.000000	0.000000	0.000000	0.000000	0.000000	0.000000	0.000000	0.000000	0.000000	0.000000
3.639333	-94.973272	641.978378	49.410163	-0.219810	0.000577	-0.456479	-0.006514	1.656233	0.005533	0.000000	0.000000	0.000000	0.000000	0.000000	0.000000	0.000000	0.000000	0.000000	0.000000	0.000000	0.000000	0.000000	0.000000	0.000000	0.000000	0.000000	0.000000
3.640000	-94.779742	642.992170	49.299248	-0.219645	0.000578	-0.456574	-0.006521	1.658179	0.005540	0.000000	0.000000	0.000000	0.000000	0.000000	0.000000	0.000000	0.000000	0.000000	0.000000	0.000000	0.000000	0.000000	0.000000	0.000000	0.000000	0.000000	0.000000
3.640667	-94.580494	643.990063	49.182819	-0.219479	0.000579	-0.456669	-0.006527	1.659554	0.005544	0.000000	0.000000	0.000000	0.000000	0.000000	0.000000	0.000000	0.000000	0.000000	0.000000	0.000000	0.000000	0.000000	0.000000	0.000000	0.000000	0.000000	0.000000
3.641333	-94.375559	644.971614	49.061519	-0.219313	0.000580	-0.456766	-0.006530	1.660336	0.005547	0.000000	0.000000	0.000000	0.000000	0.000000	0.000000	0.000000	0.000000	0.000000	0.000000	0.000000	0.000000	0.000000	0.000000	0.000000	0.000000	0.000000	0.000000
3.642000	-94.164929	645.936304	48.935999	-0.219148	0.000581	-0.456862	-0.006531	1.660507	0.005547	0.000000	0.000000	0.000000	0.000000	0.000000	0.000000	0.000000	0.000000	0.000000	0.000000	0.000000	0.000000	0.000000	0.000000	0.000000	0.000000	0.000000	0.000000
